<svg width="336" height="96" viewBox="0 0 336 96" fill="none" xmlns="http://www.w3.org/2000/svg">
<g clip-path="url(#clip0_1_16)">
<path d="M65.2305 29.4625C68.0741 28.9831 72.0654 28.6206 77.686 28.6206C83.3066 28.6206 87.482 29.7041 90.2041 31.9295C92.8049 33.9171 94.497 37.2844 94.497 41.2557C94.497 45.2271 93.2279 48.6567 90.8073 50.8821C87.6621 53.77 82.9463 55.1535 77.5019 55.1535C76.2916 55.1535 75.2027 55.095 74.3567 54.9119V69.4722H65.2266V29.4625H65.2305ZM74.3606 47.8772C75.1479 48.0565 76.1153 48.1189 77.4431 48.1189C82.3431 48.1189 85.3669 45.6519 85.3669 41.5597C85.3669 37.83 82.8288 35.6046 78.1717 35.6046C76.2955 35.6046 75.0265 35.7254 74.3606 35.9047V47.8772Z" fill="white"/>
<path d="M102.965 36.2048C99.8826 36.2048 97.885 34.0379 97.885 31.3293C97.885 28.6206 99.9414 26.4537 103.087 26.4537C106.232 26.4537 108.167 28.5583 108.225 31.3293C108.225 34.0379 106.228 36.2048 103.024 36.2048H102.965ZM98.4295 69.48V40.0553H107.622V69.48H98.4295Z" fill="white"/>
<path d="M123.767 32.0503V40.0514H130.359V46.7899H123.767V57.4997C123.767 61.0501 124.676 62.6753 127.394 62.6753C128.663 62.6753 129.271 62.6168 130.117 62.4337L130.175 69.3553C129.028 69.7762 126.787 70.1386 124.249 70.1386C121.284 70.1386 118.805 69.1175 117.293 67.6132C115.601 65.8672 114.755 63.0417 114.755 58.8871V46.7938H110.822V40.0553H114.755V34.5212L123.763 32.0542L123.767 32.0503Z" fill="white"/>
<path d="M144.448 32.0503V40.0514H151.04V46.7899H144.448V57.4997C144.448 61.0501 145.357 62.6753 148.075 62.6753C149.344 62.6753 149.951 62.6168 150.797 62.4337L150.856 69.3553C149.708 69.7762 147.468 70.1386 144.93 70.1386C141.965 70.1386 139.486 69.1175 137.974 67.6132C136.282 65.8672 135.436 63.0417 135.436 58.8871V46.7938H131.503V40.0553H135.436V34.5212L144.444 32.0542L144.448 32.0503Z" fill="white"/>
<path d="M184.18 68.2134C182.304 69.176 178.376 70.1386 173.417 70.1386C161.929 70.1386 153.339 62.9169 153.339 49.5609C153.339 36.2048 161.988 28.2621 174.627 28.2621C179.645 28.2621 182.911 29.3455 184.302 30.0665L182.97 34.338C181.035 33.3754 178.192 32.6544 174.807 32.6544C165.254 32.6544 158.905 38.7303 158.905 49.3816C158.905 59.3704 164.651 65.6879 174.506 65.6879C177.772 65.6879 181.035 65.0254 183.154 64.0043L184.18 68.2173V68.2134Z" fill="white"/>
<path d="M198.755 70.1386C190.894 70.1386 184.725 64.3628 184.725 55.1574C184.725 45.4102 191.195 39.6929 199.237 39.6929C207.278 39.6929 213.325 45.7688 213.325 54.6157C213.325 65.4463 205.766 70.1386 198.814 70.1386H198.755ZM198.935 66.1673C204.015 66.1673 207.826 61.4126 207.826 54.795C207.826 49.861 205.347 43.6642 199.056 43.6642C192.766 43.6642 190.107 49.4401 190.107 54.9781C190.107 61.358 193.734 66.1712 198.876 66.1712H198.935V66.1673Z" fill="white"/>
<path d="M241.507 61.5373C241.507 64.546 241.566 67.1923 241.75 69.48H237.034L236.732 64.7253H236.611C235.279 67.0715 232.138 70.1425 226.936 70.1425C222.342 70.1425 216.839 67.5547 216.839 57.3867V40.3593H222.162V56.424C222.162 61.9582 223.917 65.7503 228.691 65.7503C232.259 65.7503 234.739 63.2833 235.706 60.8748C236.008 60.1538 236.192 59.1911 236.192 58.1661V40.3554H241.515V61.5373H241.507Z" fill="white"/>
<path d="M247.312 48.2397C247.312 45.1725 247.253 42.764 247.069 40.3554H251.785L252.086 45.1102H252.208C253.661 42.4015 257.045 39.6929 261.882 39.6929C265.932 39.6929 272.223 42.1014 272.223 52.0902V69.48H266.9V52.6904C266.9 47.9981 265.145 44.0267 260.128 44.0267C256.681 44.0267 253.959 46.4937 252.991 49.444C252.748 50.1065 252.627 51.0691 252.627 51.9109V69.48H247.304V48.2397H247.312Z" fill="white"/>
<path d="M284.02 33.3754V40.3554H291.638V44.3852H284.02V60.0914C284.02 63.7003 285.046 65.7464 288.011 65.7464C289.461 65.7464 290.311 65.6256 291.094 65.3839L291.337 69.4137C290.311 69.7762 288.677 70.1347 286.621 70.1347C284.142 70.1347 282.144 69.2929 280.875 67.9094C279.422 66.2842 278.819 63.6964 278.819 60.2668V44.3813H274.283V40.3515H278.819V34.9966L284.02 33.3715V33.3754Z" fill="white"/>
<path d="M298.289 40.3554L304.638 57.5659C305.363 59.4912 306.091 61.7789 306.573 63.5249H306.695C307.239 61.7789 307.842 59.5536 308.571 57.449L314.375 40.3593H320L312.018 61.1203C308.206 71.1091 305.606 76.2223 301.979 79.4142C299.319 81.6396 296.777 82.5438 295.449 82.7854L294.118 78.3347C295.449 77.9722 297.2 77.1304 298.775 75.7469C300.228 74.605 301.979 72.5589 303.248 69.8502C303.491 69.3085 303.671 68.9461 303.671 68.5875C303.671 68.2874 303.549 67.8665 303.248 67.2624L292.484 40.3671H298.289V40.3554Z" fill="white"/>
<path d="M34.3385 83.3544L29.701 87.9454L29.6462 88C25.4474 83.5103 22.122 78.3698 19.674 72.5745C17.226 66.7792 16 60.8553 16 54.7989C16 48.7424 17.226 42.8107 19.674 37.0154C22.122 31.2163 25.4474 26.0718 29.6462 21.5821C32.5133 18.7605 35.6898 16.3402 39.1719 14.3214C42.654 12.3026 46.4415 10.7437 50.5385 9.64466C54.6316 8.54952 58.7991 8 63.0332 8C67.2672 8 71.4269 8.54952 75.52 9.64466C79.6131 10.7437 83.3967 12.2987 86.8788 14.3214C90.3569 16.3402 93.5334 18.7605 96.4005 21.5821L91.6808 26.3017C87.8697 22.5798 83.5299 19.7153 78.6691 17.716C73.8083 15.7167 68.599 14.7151 63.0371 14.7151C57.4752 14.7151 52.3011 15.7245 47.4051 17.7433C42.509 19.7621 38.1731 22.6149 34.3934 26.3056C32.0511 28.7765 30.0026 31.5436 28.2557 34.603C26.5088 37.6663 25.1536 40.9205 24.1901 44.3658C23.2265 47.811 22.7487 51.2913 22.7487 54.8066C22.7487 58.322 23.2304 61.8023 24.1901 65.2475C25.1536 68.6927 26.5088 71.947 28.2557 75.0103C30.0026 78.0736 32.0511 80.8406 34.3934 83.3076L34.3425 83.3622L34.3385 83.3544Z" fill="white"/>
<path d="M42.2114 75.3688L38.177 79.3636L38.13 79.4103C34.4756 75.5052 31.5811 71.0311 29.4504 65.988C27.3196 60.9449 26.2542 55.7927 26.2542 50.5235C26.2542 45.2543 27.3196 40.0943 29.4504 35.0473C31.5811 30.0003 34.4756 25.5262 38.13 21.6172C40.6251 19.1619 43.3903 17.0573 46.418 15.2997C49.4496 13.542 52.7437 12.1857 56.308 11.2309C59.8723 10.276 63.4954 9.80056 67.1811 9.80056C70.8668 9.80056 74.486 10.276 78.0463 11.2309C81.6067 12.1857 84.9008 13.542 87.9285 15.2997C90.9562 17.0573 93.7175 19.1619 96.2125 21.6172L92.1038 25.7249C88.7863 22.4863 85.0104 19.992 80.7803 18.2538C76.5501 16.5117 72.0144 15.6426 67.1772 15.6426C62.3399 15.6426 57.8356 16.5195 53.5741 18.2772C49.3126 20.0349 45.5407 22.5175 42.2544 25.7249C40.2138 27.8763 38.4355 30.2809 36.9119 32.9467C35.3883 35.6124 34.2093 38.4419 33.375 41.4428C32.5368 44.4398 32.1216 47.468 32.1216 50.5274C32.1216 53.5868 32.5407 56.615 33.375 59.612C34.2132 62.609 35.3922 65.4424 36.9119 68.1043C38.4316 70.77 40.2138 73.1785 42.2544 75.326L42.2074 75.3727L42.2114 75.3688Z" fill="white"/>
<path d="M49.8491 67.7067L46.3906 71.1325L46.3514 71.1714C43.218 67.8236 40.7386 63.9887 38.9095 59.6666C37.0803 55.3445 36.1677 50.9249 36.1677 46.4079C36.1677 41.891 37.0803 37.4675 38.9095 33.1415C40.7347 28.8155 43.218 24.9806 46.3514 21.6289C48.49 19.5243 50.8597 17.7199 53.4565 16.2155C56.0534 14.7073 58.8813 13.5459 61.9364 12.7274C64.9916 11.909 68.0976 11.4998 71.2585 11.4998C74.4193 11.4998 77.5176 11.909 80.5727 12.7274C83.6239 13.5459 86.4479 14.7073 89.0448 16.2155C91.6416 17.7199 94.0074 19.5282 96.1459 21.6289L92.6247 25.1481C89.7811 22.3694 86.5458 20.2375 82.9188 18.7449C79.2958 17.2522 75.4064 16.5039 71.2585 16.5039C67.1106 16.5039 63.2486 17.2561 59.5981 18.7644C55.9476 20.2687 52.7123 22.3966 49.8922 25.1481C48.1453 26.9916 46.6178 29.0571 45.3135 31.341C44.0092 33.6248 42.9986 36.0528 42.2818 38.6211C41.5651 41.1895 41.2047 43.7851 41.2047 46.4079C41.2047 49.0308 41.5612 51.6264 42.2818 54.1948C42.9986 56.767 44.0092 59.1911 45.3135 61.4788C46.6178 63.7627 48.1453 65.8282 49.8922 67.6678L49.8531 67.7067H49.8491Z" fill="white"/>
<path d="M56.7036 61.0579L53.8717 63.8601L53.8404 63.8913C51.2788 61.1515 49.246 58.0141 47.7536 54.4754C46.2574 50.9405 45.5093 47.3238 45.5093 43.6292C45.5093 39.9345 46.2574 36.3139 47.7536 32.7752C49.2499 29.2364 51.2788 26.0991 53.8404 23.3554C55.5912 21.6328 57.53 20.1557 59.6529 18.9241C61.7798 17.6926 64.0907 16.7417 66.5896 16.0713C69.0886 15.401 71.6306 15.0658 74.2157 15.0658C76.8008 15.0658 79.3389 15.401 81.8339 16.0713C84.3328 16.7417 86.6437 17.6926 88.7667 18.9241C90.8896 20.1557 92.8284 21.6328 94.5792 23.3554L91.7004 26.2355C89.3738 23.9634 86.726 22.2174 83.757 20.9936C80.792 19.7738 77.6076 19.1619 74.2157 19.1619C70.8237 19.1619 67.6628 19.7777 64.6743 21.0092C61.6858 22.2408 59.038 23.9829 56.7349 26.2355C55.3053 27.7438 54.0558 29.4313 52.9904 31.302C51.9211 33.1688 51.0947 35.1564 50.5072 37.261C49.9196 39.3616 49.6259 41.4857 49.6259 43.6331C49.6259 45.7805 49.9196 47.9006 50.5072 50.0052C51.0947 52.1097 51.9211 54.0934 52.9904 55.9602C54.0558 57.831 55.3053 59.5185 56.7349 61.0267L56.7036 61.0579Z" fill="white"/>
<path d="M244.789 74.3321C245.349 74.2386 246.082 74.1607 247.014 74.1607C248.158 74.1607 249 74.4257 249.533 74.9012C250.026 75.326 250.32 75.9729 250.32 76.768C250.32 77.563 250.081 78.2139 249.627 78.6776C249.015 79.3285 248.017 79.6598 246.885 79.6598C246.54 79.6598 246.219 79.6481 245.953 79.5818V83.1595H244.793V74.336L244.789 74.3321ZM245.949 78.6387C246.203 78.7049 246.52 78.7322 246.908 78.7322C248.307 78.7322 249.16 78.058 249.16 76.8225C249.16 75.5871 248.322 75.0726 247.041 75.0726C246.536 75.0726 246.148 75.1116 245.949 75.1662V78.6387Z" fill="white"/>
<path d="M252.924 74.9401C252.936 75.3376 252.646 75.6572 252.18 75.6572C251.769 75.6572 251.475 75.3376 251.475 74.9401C251.475 74.5426 251.781 74.2113 252.208 74.2113C252.635 74.2113 252.928 74.5309 252.928 74.9401H252.924ZM251.62 83.1556V76.7446H252.791V83.1556H251.62Z" fill="white"/>
<path d="M256.148 74.9012V76.7446H257.824V77.6332H256.148V81.0901C256.148 81.8851 256.375 82.3372 257.025 82.3372C257.331 82.3372 257.558 82.2982 257.703 82.2593L257.758 83.1323C257.531 83.2258 257.17 83.2921 256.72 83.2921C256.175 83.2921 255.733 83.1206 255.455 82.801C255.122 82.458 255 81.8851 255 81.1329V77.6371H254.002V76.7485H255V75.2129L256.144 74.9089L256.148 74.9012Z" fill="white"/>
<path d="M260.558 74.9012V76.7446H262.235V77.6332H260.558V81.0901C260.558 81.8851 260.786 82.3372 261.436 82.3372C261.741 82.3372 261.968 82.2982 262.113 82.2593L262.168 83.1323C261.941 83.2258 261.581 83.2921 261.13 83.2921C260.586 83.2921 260.143 83.1206 259.865 82.801C259.532 82.458 259.411 81.8851 259.411 81.1329V77.6371H258.412V76.7485H259.411V75.2129L260.554 74.9089L260.558 74.9012Z" fill="white"/>
<path d="M266.257 81.7526C266.778 82.0722 267.534 82.3372 268.333 82.3372C269.52 82.3372 270.209 81.7136 270.209 80.8134C270.209 79.9793 269.732 79.5 268.517 79.0401C267.052 78.5217 266.148 77.7696 266.148 76.5107C266.148 75.1194 267.307 74.0866 269.05 74.0866C269.97 74.0866 270.632 74.2971 271.036 74.5231L270.715 75.4624C270.421 75.3026 269.822 75.0376 269.011 75.0376C267.785 75.0376 267.319 75.7664 267.319 76.3743C267.319 77.2084 267.863 77.6215 269.105 78.0969C270.625 78.6815 271.396 79.4103 271.396 80.7198C271.396 82.0995 270.37 83.2881 268.255 83.2881C267.389 83.2881 266.445 83.0348 265.964 82.7191L266.257 81.7526Z" fill="white"/>
<path d="M274.314 74.9012V76.7446H275.991V77.6332H274.314V81.0901C274.314 81.8851 274.541 82.3372 275.192 82.3372C275.497 82.3372 275.724 82.2982 275.869 82.2593L275.924 83.1323C275.697 83.2258 275.336 83.2921 274.886 83.2921C274.342 83.2921 273.899 83.1206 273.621 82.801C273.288 82.458 273.167 81.8851 273.167 81.1329V77.6371H272.168V76.7485H273.167V75.2129L274.31 74.9089L274.314 74.9012Z" fill="white"/>
<path d="M283.06 79.8975C283.06 82.271 281.408 83.3037 279.853 83.3037C278.11 83.3037 276.762 82.0332 276.762 80.0027C276.762 77.8553 278.172 76.5965 279.958 76.5965C281.744 76.5965 283.06 77.9333 283.06 79.8936V79.8975ZM277.949 79.9638C277.949 81.3668 278.76 82.4269 279.907 82.4269C281.055 82.4269 281.866 81.3785 281.866 79.9365C281.866 78.8491 281.321 77.4734 279.935 77.4734C278.548 77.4734 277.949 78.7439 277.949 79.9638Z" fill="white"/>
<path d="M284.541 78.8374C284.541 78.0151 284.514 77.3526 284.486 76.7446H285.54L285.595 77.8436H285.622C286.1 77.0603 286.86 76.5965 287.913 76.5965C289.472 76.5965 290.643 77.9099 290.643 79.8546C290.643 82.1618 289.233 83.2999 287.714 83.2999C286.86 83.2999 286.116 82.9296 285.728 82.2943H285.7V85.7785H284.541V78.8374ZM285.7 80.5445C285.7 80.7159 285.728 80.8757 285.755 81.0199C285.967 81.8267 286.676 82.384 287.514 82.384C288.752 82.384 289.472 81.3785 289.472 79.9053C289.472 78.6192 288.795 77.5201 287.553 77.5201C286.754 77.5201 286.01 78.0892 285.783 78.966C285.744 79.1102 285.704 79.2856 285.704 79.4415V80.5406L285.7 80.5445Z" fill="white"/>
</g>
<defs>
<clipPath id="clip0_1_16">
<rect width="304" height="80" fill="white" transform="translate(16 8)"/>
</clipPath>
</defs>
</svg>
