<svg width="1049" height="1049" viewBox="0 0 1049 1049" fill="none" xmlns="http://www.w3.org/2000/svg">
<path d="M887.522 388.418L947.902 381.03L948.599 380.943C953.682 437.991 948.595 494.893 933.295 551.616C918.029 608.295 893.049 659.027 858.334 703.657C823.62 748.287 780.605 785.062 729.349 813.817C678.135 842.606 624.201 861.583 567.622 870.739C530.401 875.154 493.184 874.887 456.084 869.883C418.95 864.923 382.227 854.757 345.892 839.506C309.557 824.255 275.886 804.5 244.811 780.329C213.736 756.158 186.38 728.374 162.622 696.953C138.898 665.489 120.051 632.432 106.105 597.66C92.1588 562.888 82.7504 526.96 77.87 489.796L139.606 481.924C146.229 531.146 161.638 576.988 185.797 619.494C209.99 661.956 242.494 699.13 283.288 730.861C324.083 762.592 367.885 784.701 415.358 797.773C462.832 810.845 511.022 814.541 559.895 808.906C591.238 804.045 622.14 795.343 652.514 782.734C682.888 770.124 711.548 753.872 738.33 733.921C765.154 714.004 788.652 691.079 808.789 665.19C828.926 639.301 845.363 610.884 858.067 579.983C870.771 549.081 879.513 517.337 884.26 484.794C889.006 452.251 889.836 420.158 886.834 388.583L887.531 388.495L887.522 388.418Z" fill="#126192" fill-opacity="0.2"/>
<path d="M783.973 402.381L836.484 395.937L837.103 395.86C841.499 445.518 837.062 495.02 823.791 544.368C810.52 593.715 788.76 637.789 758.521 676.665C728.281 715.542 690.885 747.523 646.321 772.53C601.723 797.58 554.834 814.063 505.588 822.067C473.214 825.916 440.845 825.711 408.505 821.333C376.209 816.988 344.222 808.197 312.614 794.874C281.006 781.55 251.674 764.401 224.652 743.382C197.63 722.364 173.789 698.154 153.141 670.831C132.492 643.507 116.1 614.668 103.941 584.434C91.7814 554.2 83.6175 522.877 79.381 490.551L133.102 483.72C138.888 526.554 152.258 566.474 173.323 603.425C194.354 640.419 222.625 672.692 258.146 700.322C293.666 727.951 331.754 747.153 373.072 758.516C414.391 769.878 456.348 773.134 498.858 768.215C526.147 763.978 553.02 756.41 579.467 745.432C605.914 734.454 630.825 720.324 654.158 703.007C677.491 685.69 697.899 665.748 715.46 643.171C733.021 620.595 747.327 595.907 758.369 569.03C769.412 542.153 777.02 514.564 781.109 486.195C785.24 457.86 785.963 429.951 783.353 402.459L783.973 402.381Z" fill="#126192" fill-opacity="0.2"/>
<path d="M683.945 415.236L728.94 409.731L729.482 409.663C733.229 452.241 729.446 494.697 718.088 536.999C706.696 579.343 688.085 617.121 662.184 650.419C636.284 683.717 604.181 711.141 565.941 732.603C527.702 754.065 487.526 768.214 445.292 775.027C417.533 778.339 389.804 778.105 362.113 774.405C334.422 770.704 306.997 763.153 279.917 751.743C252.837 740.332 227.669 725.653 204.482 707.618C181.296 689.583 160.884 668.879 143.194 645.396C125.47 621.956 111.447 597.268 101.045 571.339C90.6436 545.411 83.5933 518.591 79.9717 490.871L126.022 484.998C130.965 521.721 142.48 555.931 160.49 587.637C178.499 619.343 202.775 647.04 233.196 670.702C263.618 694.365 296.287 710.822 331.702 720.6C367.151 730.335 403.064 733.087 439.531 728.924C462.921 725.292 485.954 718.794 508.662 709.385C531.336 700.02 552.678 687.87 572.655 672.979C592.676 658.122 610.173 641.023 625.225 621.672C640.277 602.32 652.545 581.153 662.018 558.092C671.491 535.031 678.015 511.355 681.556 487.107C685.087 462.782 685.717 438.859 683.447 415.337L683.989 415.27L683.945 415.236Z" fill="#126192" fill-opacity="0.2"/>
<path d="M595.555 425.181L632.369 420.659L632.8 420.644C635.933 455.468 632.76 490.215 623.47 524.821C614.181 559.428 598.925 590.372 577.737 617.612C556.549 644.852 530.276 667.298 498.987 684.862C467.697 702.425 434.833 714.008 400.275 719.586C377.553 722.268 354.869 722.113 332.181 719.085C309.527 716.014 287.114 709.844 264.901 700.54C242.721 691.193 222.135 679.168 203.176 664.421C184.217 649.674 167.539 632.714 153.021 613.517C138.503 594.32 127.007 574.115 118.533 552.904C110.015 531.658 104.248 509.754 101.333 487.061L138.981 482.277C143.048 512.303 152.408 540.289 167.183 566.262C181.948 592.156 201.783 614.86 226.669 634.217C251.556 653.575 278.268 667.077 307.276 675.02C336.25 683.007 365.689 685.269 395.516 681.817C414.664 678.873 433.513 673.527 452.07 665.857C470.628 658.187 488.077 648.255 504.46 636.095C520.844 623.935 535.15 609.95 547.456 594.129C559.762 578.308 569.797 561 577.55 542.128C585.304 523.256 590.637 503.9 593.504 484.025C596.406 464.107 596.915 444.566 595.056 425.282L595.443 425.234L595.555 425.181Z" fill="#126192" fill-opacity="0.2"/>
</svg>
