<svg width="1056" height="1056" viewBox="0 0 1056 1056" fill="none" xmlns="http://www.w3.org/2000/svg">
<path d="M155.987 638.219L95.2414 641.422L94.5396 641.461C93.4063 584.198 102.409 527.782 121.587 472.251C140.73 416.76 169.152 367.873 206.864 325.746C244.577 283.619 290.027 249.901 343.146 224.753C396.225 199.568 451.34 184.359 508.416 179.13C545.854 177.294 582.963 180.13 619.629 187.683C656.333 195.194 692.266 207.871 727.461 225.593C762.657 243.316 794.884 265.348 824.217 291.606C853.55 317.865 878.923 347.471 900.455 380.456C921.95 413.483 938.471 447.762 949.983 483.414C961.496 519.065 968.402 555.557 970.705 592.969L908.573 596.562C905.363 547 893.156 500.203 871.988 456.131C850.784 412.1 820.924 372.771 782.417 338.3C743.91 303.829 701.738 278.75 655.28 262.432C608.823 246.114 561.002 239.1 511.857 241.349C480.253 244.035 448.824 250.582 417.652 261.065C386.48 271.548 356.766 285.783 328.672 303.838C300.536 321.856 275.512 343.105 253.636 367.542C231.76 391.979 213.401 419.194 198.595 449.144C183.788 479.095 172.876 510.16 165.894 542.298C158.912 574.436 155.87 606.395 156.685 638.102L155.983 638.141L155.987 638.219Z" fill="#126192" fill-opacity="0.2"/>
<path d="M260.253 631.437L207.423 634.241L206.799 634.275C205.841 584.432 213.685 535.354 230.33 487.04C246.976 438.727 271.726 396.26 304.577 359.564C337.428 322.867 376.943 293.544 423.126 271.673C469.347 249.761 517.261 236.553 566.943 231.968C599.505 230.363 631.783 232.801 663.743 239.401C695.663 245.965 726.966 256.943 757.579 272.416C788.193 287.89 816.271 307.023 841.778 329.856C867.285 352.69 889.397 378.487 908.11 407.171C926.824 435.855 941.186 465.756 951.229 496.757C961.273 527.758 967.255 559.571 969.25 592.111L915.186 595.219C912.37 552.087 901.788 511.34 883.324 473.023C864.897 434.665 838.921 400.517 805.392 370.502C771.862 340.487 735.191 318.701 694.756 304.514C654.32 290.327 612.687 284.183 569.939 286.156C542.423 288.499 515.092 294.194 487.95 303.32C460.809 312.446 434.981 324.823 410.509 340.489C386.036 356.154 364.3 374.639 345.223 395.95C326.146 417.26 310.17 440.902 297.298 466.953C284.427 493.003 274.932 520.002 268.896 548.02C262.818 576.003 260.171 603.795 260.876 631.402L260.253 631.437Z" fill="#126192" fill-opacity="0.2"/>
<path d="M360.929 625.517L315.662 627.903L315.116 627.933C314.317 585.199 321.022 543.105 335.273 501.688C349.56 460.231 370.735 423.827 398.872 392.397C427.009 360.966 460.929 335.823 500.558 317.052C540.187 298.281 581.244 286.938 623.848 283.057C651.769 281.67 679.417 283.816 706.786 289.42C734.155 295.023 760.993 304.449 787.221 317.701C813.45 330.953 837.544 347.335 859.43 366.927C881.317 386.52 900.251 408.583 916.278 433.231C932.341 457.838 944.627 483.436 953.214 510.021C961.801 536.606 966.984 563.848 968.683 591.752L922.337 594.432C919.941 557.456 910.814 522.533 895.037 489.659C879.259 456.785 856.952 427.479 828.237 401.773C799.521 376.067 768.066 357.394 733.411 345.195C698.718 333.036 663.08 327.812 626.413 329.448C602.828 331.456 579.402 336.349 556.098 344.168C532.832 351.946 510.702 362.594 489.745 376.07C468.746 389.51 450.11 405.361 433.759 423.627C417.407 441.893 403.708 462.163 392.665 484.515C381.623 506.867 373.48 530.037 368.274 553.982C363.072 578.006 360.792 601.828 361.434 625.45L360.888 625.48L360.929 625.517Z" fill="#126192" fill-opacity="0.2"/>
<path d="M449.796 621.697L412.756 623.667L412.325 623.652C411.604 588.695 417.168 554.25 428.824 520.367C440.48 486.485 457.836 456.667 480.853 430.954C503.871 405.242 531.63 384.663 564.058 369.301C596.485 353.939 630.07 344.652 664.93 341.473C687.784 340.366 710.402 342.087 732.828 346.673C755.216 351.301 777.149 359.003 798.667 369.818C820.149 380.674 839.856 394.091 857.752 410.112C875.648 426.132 891.115 444.203 904.274 464.356C917.432 484.51 927.506 505.459 934.496 527.205C941.527 548.988 945.768 571.238 947.109 594.078L909.221 596.252C907.236 566.017 899.83 537.451 886.884 510.521C873.942 483.669 855.721 459.651 832.23 438.622C808.739 417.593 783.022 402.279 754.632 392.352C726.278 382.385 697.065 378.096 667.071 379.481C647.765 381.096 628.593 385.128 609.55 391.499C590.507 397.87 572.415 406.574 555.231 417.574C538.047 428.574 522.81 441.538 509.441 456.472C496.073 471.406 484.867 487.98 475.829 506.271C466.791 524.563 460.135 543.505 455.903 563.135C451.633 582.805 449.777 602.264 450.3 621.63L449.91 621.652L449.796 621.697Z" fill="#126192" fill-opacity="0.2"/>
</svg>
